<?xml version="1.0" encoding="utf-8"?>
<!-- Generator: Adobe Illustrator 16.0.0, SVG Export Plug-In . SVG Version: 6.00 Build 0)  -->
<!DOCTYPE svg PUBLIC "-//W3C//DTD SVG 1.1//EN" "http://www.w3.org/Graphics/SVG/1.1/DTD/svg11.dtd">
<svg version="1.1" id="Layer_1" xmlns="http://www.w3.org/2000/svg" xmlns:xlink="http://www.w3.org/1999/xlink" x="0px" y="0px"
	 width="280px" height="119px" viewBox="0 0 280 119" enable-background="new 0 0 280 119" xml:space="preserve">
<g>
	<g>
		<path fill="#F6A01A" d="M63.057,109.431V88.58h4.198v8.368h8.03V88.58h4.198v20.851h-4.198v-8.791h-8.03v8.791H63.057z"/>
		<path fill="#F6A01A" d="M85.516,109.431h-4.564l8.453-20.851h3.691l8.256,20.851h-4.594l-1.521-4.086h-8.228L85.516,109.431z
			 M91.066,93.539l-2.958,8.453h6.001L91.066,93.539z"/>
		<path fill="#F6A01A" d="M97.916,88.58h4.282l3.551,15.103l3.635-15.103h3.211l3.664,15.131l3.521-15.131h4.255l-5.635,20.851
			h-3.776l-3.662-14.793l-3.636,14.793h-3.889L97.916,88.58z"/>
		<path fill="#F6A01A" d="M138.522,103.035l-0.085-14.455h4.028v20.851h-3.719l-9.608-14.426l0.085,14.426h-4.029V88.58h3.747
			L138.522,103.035z"/>
		<path fill="#0079C1" d="M145.624,88.58h8.989v1.944h-6.875v7.269h6.875v1.915h-6.875v9.723h-2.114V88.58z"/>
		<path fill="#0079C1" d="M156.023,98.978c0-6.115,2.593-10.765,7.58-10.765c5.016,0,7.58,4.649,7.58,10.793
			c0,5.353-2.114,10.791-7.58,10.791c-4.987,0-7.58-4.649-7.58-10.791V98.978z M158.193,99.032c0,5.693,2.057,8.85,5.41,8.85
			s5.438-3.156,5.438-8.876c0-5.721-2.084-8.877-5.438-8.877s-5.41,3.156-5.41,8.877V99.032z"/>
		<path fill="#0079C1" d="M175.468,88.58v15.215c0,1.212,0.169,2.282,1.043,3.127c0.703,0.704,1.775,0.93,2.817,0.93
			c1.043,0,2.113-0.226,2.846-0.93c0.873-0.845,1.043-1.915,1.043-3.127V88.58h2.113v15.355c0,1.973-0.451,3.271-1.467,4.284
			c-0.985,1.014-2.479,1.577-4.506,1.577c-2.058,0-3.551-0.563-4.567-1.577c-0.984-1.014-1.436-2.312-1.436-4.284V88.58H175.468z"/>
		<path fill="#0079C1" d="M199.363,105.965V88.58h1.917v20.851h-2.369l-8.62-17.808v17.808h-1.916V88.58h2.536L199.363,105.965z"/>
		<path fill="#0079C1" d="M204.411,88.58h4.789c2.79,0,5.24,0.704,6.817,3.015c1.155,1.69,1.833,4.143,1.833,7.411
			c0,7.973-3.89,10.425-8.595,10.425h-4.845V88.58z M206.523,107.485h2.563c4.902,0,6.622-3.127,6.622-8.479
			c0-2.903-0.451-4.988-1.465-6.369c-1.043-1.464-2.733-2.112-5.213-2.112h-2.508V107.485z"/>
		<path fill="#0079C1" d="M220.332,109.431h-2.171l5.944-20.851h2.086l6.029,20.851h-2.141l-1.775-6.172h-6.255L220.332,109.431z
			 M225.178,91.313l-2.564,10.03h5.129L225.178,91.313z"/>
		<path fill="#0079C1" d="M236.225,90.524h-4.226V88.58h10.566v1.944h-4.228v18.906h-2.113V90.524z"/>
		<path fill="#0079C1" d="M244.257,88.58h2.113v20.851h-2.113V88.58z"/>
		<path fill="#0079C1" d="M248.623,98.978c0-6.115,2.593-10.765,7.581-10.765c5.015,0,7.579,4.649,7.579,10.793
			c0,5.353-2.113,10.791-7.579,10.791c-4.988,0-7.581-4.649-7.581-10.791V98.978z M250.793,99.032c0,5.693,2.058,8.85,5.411,8.85
			c3.353,0,5.437-3.156,5.437-8.876c0-5.721-2.084-8.877-5.437-8.877c-3.354,0-5.411,3.156-5.411,8.877V99.032z"/>
		<path fill="#0079C1" d="M277.083,105.965V88.58H279v20.851h-2.366l-8.622-17.808v17.808h-1.915V88.58h2.534L277.083,105.965z"/>
	</g>
	<g>
		<path fill="#0079C1" d="M63.602,76.721h-2.004v-0.922h5.008v0.922h-2.004v8.96h-1V76.721z"/>
		<path fill="#0079C1" d="M67.392,75.799h0.894v2.564c0,0.387,0,0.761-0.026,1.201c0.308-0.935,1.056-1.321,1.949-1.321
			c0.668,0,1.202,0.227,1.563,0.653c0.401,0.454,0.534,1.096,0.534,2.004v4.78H71.41v-4.514c0-0.721-0.066-1.188-0.334-1.576
			c-0.267-0.387-0.747-0.467-1.055-0.467c-0.334,0-0.854,0.04-1.282,0.588c-0.307,0.4-0.454,0.854-0.454,1.843v4.126h-0.894V75.799z
			"/>
		<path fill="#0079C1" d="M74.266,82.314c0,1.509,0.615,2.698,1.843,2.698c0.881,0,1.442-0.602,1.63-1.442h0.881
			c-0.134,0.748-0.468,1.321-0.908,1.709c-0.44,0.374-0.988,0.574-1.603,0.574c-2.003,0-2.777-1.923-2.777-3.792
			c0-2.257,1.041-3.818,2.751-3.818c0.854,0,1.522,0.387,1.95,1.028c0.587,0.867,0.68,1.988,0.667,3.043H74.266z M77.791,81.527
			c-0.026-1.509-0.654-2.523-1.749-2.523c-1.055,0-1.75,1.081-1.776,2.523H77.791z"/>
	</g>
	<g>
		<circle fill="#439539" cx="30.823" cy="94.768" r="3.071"/>
		<path fill="#439539" d="M46.297,110.909L46.297,110.909l-8.905-8.596c-0.105-0.128-0.183-0.284-0.214-0.457
			c-0.044-0.239,0.004-0.473,0.117-0.669c1.267-1.876,3.559-7.091,3.56-7.094c0.12-0.185,0.177-0.338,0.141-0.537
			c-0.065-0.357-0.407-0.595-0.766-0.53c-0.087,0.016-0.165,0.049-0.234,0.092l-0.004-0.002l-7.725,5.761c-0.001,0-0.001,0-0.001,0
			c-0.146,0.095-0.313,0.163-0.494,0.195c-0.17,0.031-0.337,0.028-0.497-0.004h-0.001l-10.738-2.237h-0.002
			c-0.08-0.016-0.165-0.018-0.251-0.004c-0.358,0.066-0.596,0.408-0.531,0.767c0.037,0.203,0.164,0.368,0.332,0.461l0,0l8.056,5.338
			l-0.001,0.001c0.221,0.143,0.384,0.372,0.435,0.651c0.031,0.172,0.015,0.341-0.037,0.493l-4.794,13.169h0.002
			c-0.052,0.15-0.066,0.317-0.035,0.486c0.097,0.533,0.607,0.888,1.141,0.791c0.262-0.046,0.479-0.193,0.622-0.392
			c0.009-0.015,0.017-0.026,0.025-0.04c0.012-0.019,0.025-0.036,0.037-0.056l7.579-10.818l0,0c0.178-0.27,0.464-0.468,0.805-0.529
			c0.249-0.046,0.496-0.012,0.711,0.082l10.476,5.215c0.002,0,0.003,0.002,0.005,0.002c0.008,0.005,0.017,0.01,0.023,0.015
			c0.189,0.104,0.414,0.143,0.642,0.103c0.533-0.097,0.889-0.608,0.792-1.141C46.528,111.223,46.432,111.046,46.297,110.909z"/>
	</g>
	<g>
		<circle fill="#F15D22" cx="46.603" cy="81.889" r="2.303"/>
		<path fill="#F15D22" d="M58.208,93.995L58.208,93.995l-6.679-6.449c-0.08-0.095-0.138-0.211-0.161-0.343
			c-0.032-0.179,0.004-0.353,0.088-0.499c0.951-1.408,2.669-5.319,2.671-5.321c0.089-0.139,0.132-0.254,0.104-0.402
			c-0.049-0.269-0.306-0.446-0.574-0.397c-0.064,0.012-0.124,0.035-0.176,0.068l-0.003-0.003l-5.793,4.322c-0.001,0-0.001,0-0.001,0
			c-0.108,0.071-0.234,0.122-0.37,0.146c-0.127,0.024-0.253,0.02-0.373-0.003l-0.001,0.001l-8.054-1.681l-0.001,0.001
			c-0.061-0.012-0.125-0.015-0.189-0.002c-0.269,0.048-0.446,0.306-0.397,0.574c0.027,0.151,0.123,0.275,0.249,0.345v0.001
			l6.042,4.004l-0.001,0.001c0.165,0.106,0.288,0.277,0.326,0.487c0.023,0.128,0.011,0.255-0.028,0.371l-3.595,9.876l0.001-0.001
			c-0.038,0.113-0.05,0.24-0.026,0.366c0.072,0.401,0.456,0.667,0.856,0.594c0.194-0.036,0.358-0.146,0.465-0.295
			c0.008-0.01,0.014-0.021,0.02-0.029c0.01-0.016,0.02-0.029,0.028-0.044l5.684-8.113h0.001c0.133-0.2,0.348-0.35,0.604-0.396
			c0.187-0.033,0.371-0.01,0.533,0.062l7.856,3.912c0.002,0,0.002,0,0.003,0.002c0.006,0.003,0.013,0.006,0.02,0.01
			c0.141,0.077,0.309,0.107,0.48,0.077c0.4-0.072,0.665-0.455,0.593-0.855C58.381,94.229,58.31,94.097,58.208,93.995z"/>
	</g>
	<g>
		<circle fill="#F6A01A" cx="9.89" cy="90.339" r="2.456"/>
		<path fill="#F6A01A" d="M22.376,103.84L22.376,103.84l-7.124-6.877c-0.085-0.102-0.147-0.226-0.173-0.365
			c-0.034-0.19,0.004-0.378,0.094-0.535c1.014-1.501,2.847-5.673,2.85-5.675c0.096-0.147,0.141-0.271,0.112-0.429
			c-0.052-0.287-0.327-0.477-0.614-0.425c-0.067,0.013-0.132,0.038-0.188,0.073l-0.002-0.002l-6.181,4.609c0,0.001,0,0.001,0,0.001
			c-0.116,0.076-0.249,0.13-0.396,0.155c-0.136,0.025-0.27,0.022-0.397-0.003l0,0l-8.593-1.79v0.001
			c-0.064-0.013-0.133-0.016-0.201-0.004c-0.286,0.052-0.477,0.326-0.425,0.613c0.029,0.162,0.131,0.294,0.266,0.368l0,0
			l6.444,4.271l0,0c0.176,0.114,0.307,0.298,0.348,0.521c0.024,0.137,0.012,0.272-0.03,0.394l-3.835,10.536h0.002
			c-0.042,0.12-0.054,0.255-0.029,0.39c0.077,0.428,0.486,0.709,0.913,0.632c0.21-0.036,0.383-0.155,0.498-0.313
			c0.007-0.011,0.014-0.021,0.02-0.031c0.011-0.016,0.021-0.029,0.029-0.046l6.063-8.654h0.001c0.142-0.213,0.37-0.373,0.644-0.422
			c0.199-0.036,0.396-0.012,0.568,0.064l8.381,4.174c0.001,0,0.002,0,0.003,0c0.006,0.004,0.014,0.008,0.021,0.011
			c0.15,0.082,0.33,0.116,0.513,0.082c0.427-0.077,0.71-0.485,0.632-0.911C22.561,104.092,22.483,103.949,22.376,103.84z"/>
	</g>
	<g>
		<circle fill="#0079C1" cx="25.047" cy="72.532" r="2.764"/>
		<path fill="#0079C1" d="M38.975,87.06L38.975,87.06L30.96,79.32c-0.096-0.113-0.165-0.253-0.193-0.41
			c-0.039-0.215,0.004-0.425,0.104-0.601c1.142-1.688,3.203-6.383,3.206-6.386c0.106-0.165,0.157-0.304,0.125-0.482
			c-0.058-0.322-0.366-0.535-0.689-0.477c-0.077,0.014-0.147,0.043-0.211,0.082L33.3,71.045l-6.953,5.185h-0.001
			c-0.13,0.086-0.28,0.146-0.444,0.177c-0.152,0.027-0.303,0.023-0.447-0.004h-0.001l-9.664-2.015l-0.001,0.003
			c-0.073-0.016-0.149-0.018-0.228-0.004c-0.322,0.059-0.536,0.366-0.478,0.688c0.034,0.184,0.147,0.332,0.298,0.416l0,0
			l7.251,4.804l-0.001,0.001c0.198,0.128,0.346,0.335,0.392,0.586c0.028,0.154,0.013,0.306-0.034,0.444l-4.313,11.852l0.001-0.001
			c-0.046,0.137-0.06,0.287-0.032,0.439c0.087,0.48,0.548,0.799,1.026,0.712c0.235-0.043,0.432-0.175,0.562-0.354
			c0.008-0.012,0.015-0.023,0.022-0.034c0.012-0.017,0.022-0.034,0.032-0.052l6.822-9.735l0,0c0.159-0.242,0.417-0.421,0.724-0.477
			c0.225-0.041,0.446-0.011,0.641,0.072l9.429,4.695c0.001,0,0.002,0.002,0.003,0.002c0.008,0.004,0.016,0.008,0.021,0.013
			c0.17,0.092,0.372,0.129,0.578,0.092c0.479-0.087,0.799-0.547,0.712-1.027C39.183,87.339,39.096,87.182,38.975,87.06z"/>
	</g>
</g>
</svg>
